<?xml version="1.0" encoding="iso-8859-1"?>
<!-- Generator: Adobe Illustrator 16.0.0, SVG Export Plug-In . SVG Version: 6.00 Build 0)  -->
<!DOCTYPE svg PUBLIC "-//W3C//DTD SVG 1.1//EN" "http://www.w3.org/Graphics/SVG/1.1/DTD/svg11.dtd">
<svg version="1.1" id="Capa_1" xmlns="http://www.w3.org/2000/svg" xmlns:xlink="http://www.w3.org/1999/xlink" x="0px" y="0px"
	 width="359.346px" height="359.346px" viewBox="0 0 359.346 359.346" style="enable-background:new 0 0 359.346 359.346;"
	 xml:space="preserve">
<g>
	<path d="M349.57,93.573c-36.107-88.74-142.596-56.304-170.747,16.524c-24.48-67.32-129.133-82.62-167.688-11.628
		c-19.584,36.72-12.24,78.336,13.464,110.161c14.688,18.359,34.272,32.436,54.468,44.676c28.152,17.135,61.812,29.988,74.664,62.424
		c1.836,4.283,6.12,4.283,8.568,2.447c1.224,1.225,3.672,1.836,6.12,0.613c31.823-15.301,62.424-33.049,94.248-48.35
		c23.867-11.627,48.348-23.256,66.096-43.451C361.198,191.493,367.318,137.025,349.57,93.573z M344.675,151.101
		c-4.896,96.083-117.504,111.996-182.376,157.896c0,0,0,0-0.612,0.611c-7.344-23.256-25.092-37.943-45.899-50.795
		c-33.048-20.195-69.769-37.943-90.576-72.828C-1.105,142.533,17.867,82.557,68.663,67.257
		c54.468-15.912,94.248,23.256,103.428,72.828c0,0.612,0,0.612,0,1.224c0,0.612,0,1.224,0.612,1.836c0,0.612,0,1.224,0,1.836
		c0.611,6.12,10.403,4.284,11.016-1.224c0-5.508,0-10.404-0.612-15.3c12.24-36.108,38.556-67.32,77.725-74.664
		C318.971,42.166,347.122,102.753,344.675,151.101z"/>
</g>
<g>
</g>
<g>
</g>
<g>
</g>
<g>
</g>
<g>
</g>
<g>
</g>
<g>
</g>
<g>
</g>
<g>
</g>
<g>
</g>
<g>
</g>
<g>
</g>
<g>
</g>
<g>
</g>
<g>
</g>
</svg>
